inDegrees=yes
name=ik_S54_A03_T01
DataType=double
version=3
OpenSimVersion=4.3-2021-08-27-4bc7ad9
endheader
time	pelvis_tilt	pelvis_list	pelvis_rotation	pelvis_tx	pelvis_ty	pelvis_tz	hip_flexion_r	hip_adduction_r	hip_rotation_r	knee_angle_r	knee_angle_r_beta	ankle_angle_r	subtalar_angle_r	mtp_angle_r	hip_flexion_l	hip_adduction_l	hip_rotation_l	knee_angle_l	knee_angle_l_beta	ankle_angle_l	subtalar_angle_l	mtp_angle_l	lumbar_extension	lumbar_bending	lumbar_rotation	arm_flex_r	arm_add_r	arm_rot_r	elbow_flex_r	pro_sup_r	wrist_flex_r	wrist_dev_r	arm_flex_l	arm_add_l	arm_rot_l	elbow_flex_l	pro_sup_l	wrist_flex_l	wrist_dev_l
17.57999999999971	1.759707361452387	-2.398180810138981	93.93292518720621	0	0.9399999999999999	0	3.03611907165017	1.641938778307274	-26.71490926505097	1.631996470789911	0.02848371179621141	0	0	0	0.1811624152188251	-1.921421078237423	-8.42340063466175	4.847961428521022	0.08461288893737956	0	0	0	0	0	0	38.03611447487921	-38.03611447487916	4.809084917951126	82.33580187895751	85.19091534829727	0	0	38.03611447487921	-38.03611447487916	4.809084917951126	82.33580187895751	85.19091534826084	0	0
17.59999999999971	1.806130261703294	-2.421202816852873	93.9983953838631	0	0.9399999999999999	0	3.310185279212419	1.211365273205292	-27.40300452662923	2.405149765363894	0.04197778240916902	0	0	0	0.1846783394674599	-1.648684394179727	-7.576707267998945	4.188627068174233	0.07310533347779735	0	0	0	0	0	0	38.03767953608806	-38.037679536088	4.80917124198047	82.33700746166444	85.19082902427201	0	0	38.03767953608806	-38.037679536088	4.80917124198047	82.33700746166444	85.19082902423563	0	0
17.61999999999971	1.847384443831529	-2.494420056329785	94.04610200571524	0	0.9399999999999999	0	3.64712176897584	0.7178902539461557	-28.13273600361654	3.314837002369153	0.0578548198582808	0	0	0	-0.1081196435918908	-1.255892384813929	-5.733541817447147	3.126152436955999	0.05456165294412665	0	0	0	0	0	0	38.03932008576002	-38.03932008575997	4.809261706320354	82.33827086562097	85.19073855993642	0	0	38.03932008576002	-38.03932008575997	4.809261706320354	82.33827086562097	85.19073855990004	0	0
17.63999999999971	1.884744372919226	-2.521896785370205	94.06653734186989	0	0.9399999999999999	0	3.968331323614153	0.1749707065690238	-28.67298681915485	4.395857206963207	0.07672218170902977	0	0	0	-0.3345541882709277	-1.146259269206939	-4.829918416012378	2.38494486864765	0.04162514043644518	0	0	0	0	0	0	38.04116843903206	-38.04116843903201	4.80936360525299	82.33969396080064	85.19063666100853	0	0	38.04116843903206	-38.04116843903201	4.80936360525299	82.33969396080064	85.19063666097213	0	0
17.65999999999971	1.877118434429079	-2.491953420882975	94.08039984958566	0	0.9399999999999999	0	4.325680948918677	-0.4275039465224748	-28.91899539269853	4.996955844343592	0.08721333206056896	0	0	0	-0.2665814535264862	-0.9756136627010843	-5.813286456865915	2.495107375122403	0.04354783888667919	0	0	0	0	0	0	38.04234424504559	-38.04234424504554	4.80942829569245	82.34059740690616	85.19057197057204	0	0	38.04234424504559	-38.04234424504554	4.80942829569245	82.34059740690616	85.19057197053574	0	0
17.67999999999971	1.7950646676321	-2.34221471387078	94.13712303447625	0	0.9399999999999999	0	4.626796607469864	-1.219006390142932	-29.22717299382838	6.449144492966793	0.1125588053391308	0	0	0	-0.3811835880498889	-0.8242350991914417	-5.673188427653897	2.401050404130701	0.0419062350584212	0	0	0	0	0	0	38.0439917118787	-38.04399171187864	4.809518797812385	82.34186132577312	85.19048146845631	0	0	38.0439917118787	-38.04399171187864	4.809518797812385	82.34186132577312	85.19048146842002	0	0
17.69999999999971	1.451180073441035	-2.242479620006607	94.47787830326838	0	0.9399999999999999	0	4.988787718906432	-2.264676906995606	-29.67729980940329	8.030616435682704	0.1401606977674346	0	0	0	-0.284752042774731	-0.5034591869780686	-6.36835024086146	2.862061905225358	0.04995240364208439	0	0	0	0	0	0	38.04544890735486	-38.04544890735481	4.809598964107805	82.34298090136403	85.19040130216464	0	0	38.04544890735486	-38.04544890735481	4.809598964107805	82.34298090136403	85.19040130212836	0	0
17.71999999999971	0.9435821734052932	-2.478482658107254	95.03138904717176	0	0.9399999999999999	0	5.740878529783534	-3.498799661982618	-29.83859835174515	9.909976960552632	0.1729617267584236	0	0	0	-0.1550077406386154	0.3301417129171516	-5.146816255773198	2.602818617890098	0.0454277547143904	0	0	0	0	0	0	38.04852968812637	-38.04852968812632	4.809767025606428	82.3453279439551	85.19023324067389	0	0	38.04852968812637	-38.04852968812632	4.809767025606428	82.3453279439551	85.19023324063765	0	0
17.73999999999971	0.6018587852941074	-2.615278347839712	95.33806601313611	0	0.9399999999999999	0	6.503914869889086	-4.539104732918767	-28.30639285501005	13.49461448307002	0.2355254540168844	0	0	0	-0.3701491791082075	1.096874177894402	-3.336369970124554	1.83898500709006	0.03209634326853282	0	0	0	0	0	0	38.11249433886859	-38.11249433886854	4.812787250805622	82.38749157258071	85.18721301561182	0	0	38.11249433886859	-38.11249433886854	4.812787250805622	82.38749157258071	85.18721301557618	0	0
17.75999999999971	0.3175256955097067	-2.657961143376129	95.59568305678565	0	0.9399999999999999	0	7.079280328210621	-5.158081010150721	-26.26822769818504	15.16843823085043	0.2647391895137237	0	0	0	-0.4027293204031253	1.552354799829141	-2.686552240258281	1.737731612863517	0.03032913816045982	0	0	0	0	0	0	38.13780932981123	-38.13780932981118	4.813971970916279	82.40403045434033	85.18602829555485	0	0	38.13780932981123	-38.13780932981118	4.813971970916279	82.40403045434033	85.18602829551946	0	0
17.77999999999971	0.2793720675084844	-2.598751353121685	95.81350534505846	0	0.9399999999999999	0	7.35567664286055	-5.341435194949991	-24.50137431324974	15.32547177742737	0.2674799419375752	0	0	0	-0.3505916510603435	1.719990864600696	-3.270921666651967	1.998088053616455	0.03487321528037213	0	0	0	0	0	0	38.15094071787073	-38.15094071787068	4.81459291354957	82.41269913420406	85.1854073529498	0	0	38.15094071787073	-38.15094071787068	4.81459291354957	82.41269913420406	85.1854073529145	0	0
17.79999999999971	0.2608010710553091	-2.399386589178547	96.56366348461736	0	0.9399999999999999	0	7.910289535139694	-5.2723231922172	-21.37060904923048	17.8978132391678	0.3123757699305094	0	0	0	-0.9224408567955501	1.921784797645873	-2.182854755436161	1.555379195222216	0.02714648807364732	0	0	0	0	0	0	38.17346595464048	-38.17346595464043	4.815656071582977	82.4275412815599	85.18434419496468	0	0	38.17346595464048	-38.17346595464043	4.815656071582977	82.4275412815599	85.18434419492961	0	0
17.81999999999971	0.4032800483092941	-2.397143099746704	97.08166592910879	0	0.9399999999999999	0	8.50121625716759	-4.917170301712103	-18.72775839637592	18.46722110634006	0.3223138119994239	0	0	0	-1.017209484828209	1.873018586836018	-2.036198648361592	1.600788524202436	0.02793903037547345	0	0	0	0	0	0	38.18809148436886	-38.18809148436881	4.816340965744083	82.43710251505122	85.18365930083462	0	0	38.18809148436886	-38.18809148436881	4.816340965744083	82.43710251505122	85.18365930079969	0	0
17.83999999999971	0.5096496724622357	-2.448907698893069	97.38069894589457	0	0.9399999999999999	0	9.315931335524278	-4.570682004440514	-15.91613639845865	18.9183832696101	0.3301880772089063	0	0	0	-1.021198557113702	1.805440419450077	-2.442396935909343	1.700179529955865	0.02967373067273941	0	0	0	0	0	0	38.20161702950608	-38.20161702950603	4.816976294004726	82.44597185953579	85.18302397260278	0	0	38.20161702950608	-38.20161702950603	4.816976294004726	82.44597185953579	85.18302397256799	0	0
17.85999999999971	0.7187645983524582	-2.572049444407846	97.90342722108731	0	0.9399999999999999	0	10.37976391831003	-4.21770030753448	-13.43288490331164	19.18521523748538	0.3348451735979057	0	0	0	-1.0249996074012	1.625463648050792	-2.198358114730823	1.684643998692706	0.02940258450115077	0	0	0	0	0	0	38.21598276497993	-38.21598276497987	4.817647014554308	82.45533514795746	85.18235325208362	0	0	38.21598276497993	-38.21598276497987	4.817647014554308	82.45533514795746	85.1823532520489	0	0
17.87999999999971	0.9746767617795123	-2.646990050642458	98.43850340006655	0	0.9399999999999999	0	11.50369549669705	-3.820619956492822	-11.10323988665777	19.10951294203202	0.333523919290927	0	0	0	-1.185839121547255	1.426608198240752	-1.629256294622077	1.404793984357522	0.02451828033924847	0	0	0	0	0	0	38.22966517485693	-38.22966517485688	4.818293913208786	82.46436613439054	85.18170635345854	0	0	38.22966517485693	-38.22966517485688	4.818293913208786	82.46436613439054	85.18170635342393	0	0
17.89999999999971	1.21569484845406	-2.680607348681753	98.96697586578209	0	0.9399999999999999	0	12.60070501608917	-3.380014026709538	-8.990668180932028	18.68913539580665	0.3261869470078397	0	0	0	-1.292587226050473	1.2529861087316	-1.312582918838874	1.303068764365273	0.02274284031806817	0	0	0	0	0	0	38.24132538533895	-38.2413253853389	4.818841203281592	82.4720064103883	85.18115906341055	0	0	38.24132538533895	-38.2413253853389	4.818841203281592	82.4720064103883	85.18115906337603	0	0
17.91999999999971	1.469171931716868	-2.674511890102709	99.50882260171311	0	0.9399999999999999	0	13.60831963159027	-2.866501373918394	-7.289844636652833	17.73117747950194	0.3094674272727782	0	0	0	-1.309180093930129	1.007336316765769	-0.8164259690030204	1.276571555006989	0.02228037677217587	0	0	0	0	0	0	38.25207029643853	-38.25207029643848	4.819352557870579	82.47914523843687	85.1806477088448	0	0	38.25207029643853	-38.25207029643848	4.819352557870579	82.47914523843687	85.18064770881038	0	0
